<svg width="390" height="260" viewBox="0 0 390 260" fill="none" xmlns="http://www.w3.org/2000/svg">
<path fill-rule="evenodd" clip-rule="evenodd" d="M232.085 180.836L236.505 173.507C238.186 170.728 241.606 168.973 245.354 168.973H288.679C294.137 168.973 298.567 172.646 298.567 177.171V193.567C298.567 202.626 289.717 209.963 278.792 209.963H120.597C109.671 209.963 100.822 202.626 100.822 193.567V177.171C100.822 172.646 105.252 168.973 110.709 168.973H154.035C157.783 168.973 161.203 170.728 162.874 173.507L167.294 180.836C168.975 183.615 172.396 185.369 176.143 185.369H223.246C226.993 185.369 230.414 183.615 232.085 180.836Z" fill="white" stroke="#E1E4E5" stroke-width="4"/>
<path fill-rule="evenodd" clip-rule="evenodd" d="M288.679 168.973V78.796C288.679 69.7372 279.83 62.4 268.905 62.4H130.484C119.558 62.4 110.71 69.7372 110.71 78.796V168.973" fill="white"/>
<path d="M288.679 168.973V78.796C288.679 69.7372 279.83 62.4 268.905 62.4H130.484C119.558 62.4 110.71 69.7372 110.71 78.796V168.973" stroke="#E1E4E5" stroke-width="4"/>
<path d="M186.904 84.5884V133.835C186.904 138.063 183.972 141.492 180.357 141.492H113.245C111.985 141.492 110.749 141.919 109.684 142.719L99.8083 150.202C95.4537 153.503 89.7 149.848 89.7 143.774V84.5793C89.7 80.3513 92.6314 76.9232 96.2472 76.9232H180.349C183.972 76.9323 186.904 80.3604 186.904 84.5884Z" fill="#7688C9"/>
<path d="M110.396 112.544H166.312C167.154 112.544 167.961 112.209 168.557 111.613C169.152 111.018 169.487 110.211 169.488 109.369C169.488 107.617 168.063 106.193 166.312 106.193H110.396C108.645 106.193 107.22 107.617 107.22 109.369C107.221 110.211 107.556 111.018 108.152 111.613C108.747 112.209 109.554 112.544 110.396 112.544ZM110.584 98.9001H135.794C137.546 98.9001 138.97 97.4757 138.97 95.7246C138.97 93.9731 137.546 92.5487 135.794 92.5487H110.584C108.833 92.5487 107.409 93.9731 107.409 95.7246C107.409 97.4757 108.833 98.9001 110.584 98.9001ZM166.312 120.258H110.396C108.645 120.258 107.22 121.682 107.22 123.433C107.22 125.184 108.645 126.609 110.396 126.609H166.312C168.063 126.609 169.488 125.184 169.488 123.433C169.488 121.682 168.063 120.258 166.312 120.258Z" fill="white"/>
<path d="M292.933 108.618V150.77C292.933 154.388 290.424 157.323 287.33 157.323H229.886C228.808 157.323 227.75 157.689 226.838 158.373L218.385 164.779C214.658 167.604 209.733 164.475 209.733 159.276V108.61C209.733 104.991 212.242 102.056 215.337 102.056H287.323C290.424 102.064 292.933 104.998 292.933 108.618Z" fill="#7688C9"/>
<path d="M227.448 132.546H275.308C276.029 132.545 276.72 132.258 277.23 131.749C277.739 131.239 278.026 130.548 278.027 129.828C278.026 129.107 277.739 128.416 277.23 127.907C276.72 127.397 276.029 127.11 275.308 127.11H227.448C226.727 127.11 226.037 127.397 225.527 127.906C225.017 128.416 224.731 129.107 224.73 129.828C224.731 130.548 225.018 131.239 225.527 131.749C226.037 132.258 226.727 132.545 227.448 132.546ZM227.609 120.867H249.187C249.908 120.866 250.599 120.58 251.108 120.07C251.618 119.561 251.905 118.87 251.905 118.149C251.905 117.429 251.618 116.738 251.108 116.228C250.599 115.718 249.908 115.432 249.187 115.431H227.609C226.888 115.432 226.197 115.718 225.688 116.228C225.178 116.738 224.891 117.429 224.891 118.149C224.891 118.87 225.178 119.561 225.688 120.07C226.197 120.58 226.888 120.866 227.609 120.867ZM275.308 139.148H227.448C226.727 139.149 226.037 139.435 225.527 139.945C225.018 140.454 224.731 141.145 224.73 141.866C224.731 142.587 225.018 143.277 225.527 143.787C226.037 144.297 226.727 144.583 227.448 144.584H275.308C276.029 144.583 276.72 144.297 277.23 143.787C277.739 143.278 278.026 142.587 278.027 141.866C278.026 141.145 277.739 140.454 277.23 139.945C276.72 139.435 276.029 139.148 275.308 139.148Z" fill="white"/>
<path d="M230.75 86.4565C233.024 86.4565 234.867 84.6134 234.867 82.3398C234.867 80.0663 233.024 78.2232 230.75 78.2232C228.476 78.2232 226.633 80.0663 226.633 82.3398C226.633 84.6134 228.476 86.4565 230.75 86.4565Z" fill="#E1E4E5"/>
<path d="M245.917 86.4565C248.19 86.4565 250.033 84.6134 250.033 82.3398C250.033 80.0663 248.19 78.2232 245.917 78.2232C243.643 78.2232 241.8 80.0663 241.8 82.3398C241.8 84.6134 243.643 86.4565 245.917 86.4565Z" fill="#E1E4E5"/>
<path d="M261.083 86.4565C263.357 86.4565 265.2 84.6134 265.2 82.3398C265.2 80.0663 263.357 78.2232 261.083 78.2232C258.81 78.2232 256.967 80.0663 256.967 82.3398C256.967 84.6134 258.81 86.4565 261.083 86.4565Z" fill="#E1E4E5"/>
<path d="M311.167 80.8128C307.918 83.0509 302.954 81.4866 302.954 81.4866C302.954 81.4866 303.261 76.294 306.513 74.058C309.762 71.8198 314.724 73.382 314.724 73.382C314.724 73.382 314.417 78.5746 311.167 80.8128Z" fill="url(#paint0_linear_17_593)"/>
<path d="M93.2468 61.9459C96.2901 65.0433 101.98 64.3903 101.98 64.3903C101.98 64.3903 102.733 58.7158 99.6874 55.6205C96.6446 52.523 90.9571 53.1743 90.9571 53.1743C90.9571 53.1743 90.2039 58.8488 93.2468 61.9459Z" fill="url(#paint1_linear_17_593)"/>
<path d="M92.9499 165.967C94.9842 165.967 96.6333 164.318 96.6333 162.283C96.6333 160.249 94.9842 158.6 92.9499 158.6C90.9157 158.6 89.2666 160.249 89.2666 162.283C89.2666 164.318 90.9157 165.967 92.9499 165.967Z" fill="#7688C9"/>
<path d="M76.9705 189.474C79.0344 189.474 80.7075 187.801 80.7075 185.737C80.7075 183.673 79.0344 182 76.9705 182C74.9065 182 73.2334 183.673 73.2334 185.737C73.2334 187.801 74.9065 189.474 76.9705 189.474Z" fill="#E1E4E5"/>
<path d="M199.832 199.464C201.065 199.464 202.064 198.465 202.064 197.232C202.064 195.999 201.065 195 199.832 195C198.599 195 197.6 195.999 197.6 197.232C197.6 198.465 198.599 199.464 199.832 199.464Z" fill="#E1E4E5"/>
<path d="M291.789 60.5436C293.549 60.5436 294.977 59.1161 294.977 57.3551C294.977 55.5942 293.549 54.1667 291.789 54.1667C290.028 54.1667 288.6 55.5942 288.6 57.3551C288.6 59.1161 290.028 60.5436 291.789 60.5436Z" fill="#E1E4E5"/>
<path d="M305.312 117.056C307.601 117.056 309.456 115.201 309.456 112.911C309.456 110.622 307.601 108.767 305.312 108.767C303.022 108.767 301.167 110.622 301.167 112.911C301.167 115.201 303.022 117.056 305.312 117.056Z" fill="#E1E4E5"/>
<path d="M183.541 157.3H183.494C183.214 161.263 180.267 161.324 180.267 161.324C180.267 161.324 183.517 161.388 183.517 165.967C183.517 161.388 186.767 161.324 186.767 161.324C186.767 161.324 183.821 161.263 183.541 157.3ZM78.8806 67.6H78.7991C78.3168 74.7201 73.2334 74.8297 73.2334 74.8297C73.2334 74.8297 78.839 74.9437 78.839 83.1705C78.839 74.9437 84.4442 74.8297 84.4442 74.8297C84.4442 74.8297 79.3629 74.7201 78.8806 67.6ZM311.147 158.167H311.066C310.584 165.287 305.5 165.396 305.5 165.396C305.5 165.396 311.106 165.51 311.106 173.737C311.106 165.51 316.711 165.396 316.711 165.396C316.711 165.396 311.63 165.287 311.147 158.167ZM201.819 94.4667H201.759C201.398 99.7867 197.6 99.8686 197.6 99.8686C197.6 99.8686 201.788 99.9535 201.788 106.101C201.788 99.9535 205.976 99.8686 205.976 99.8686C205.976 99.8686 202.18 99.7867 201.819 94.4667Z" fill="#E1E4E5"/>
<defs>
<linearGradient id="paint0_linear_17_593" x1="298.51" y1="88.1565" x2="324.088" y2="61.1849" gradientUnits="userSpaceOnUse">
<stop stop-color="white"/>
<stop offset="1" stop-color="#EEEEEE"/>
</linearGradient>
<linearGradient id="paint1_linear_17_593" x1="105.388" y1="72.5253" x2="83.3889" y2="38.0393" gradientUnits="userSpaceOnUse">
<stop stop-color="white"/>
<stop offset="1" stop-color="#EEEEEE"/>
</linearGradient>
</defs>
</svg>
