<svg width="390" height="260" viewBox="0 0 390 260" fill="none" xmlns="http://www.w3.org/2000/svg">
<g clip-path="url(#clip0_17_949)">
<path d="M311.606 110.377C318.746 86.8352 280.836 71.8748 280.836 71.8748C280.836 71.8748 235.732 92.6779 228.496 89.32C221.261 85.9621 263.589 64.0016 263.589 64.0016C251.372 54.6126 208.269 49.8216 208.269 49.8216C208.269 49.8216 184.656 92.2354 178.47 87.1992C172.283 82.1635 201.294 50.7087 201.294 50.7087C186.351 46.6141 165.424 53.9496 165.424 53.9496C135.79 68.6725 156.226 105.966 156.226 105.966C156.226 105.966 147.726 120.49 128.686 131.335C128.686 131.335 124.811 133.113 119.579 136.983L123.008 139.129C123.843 138.399 124.709 137.705 125.603 137.05C125.608 137.045 125.615 137.04 125.622 137.038C125.636 137.029 125.646 137.02 125.661 137.011C126.448 136.479 127.238 135.952 128.033 135.431L128.036 135.428L128.039 135.425C130.37 134.026 132.028 132.957 133.157 132.143L133.166 132.134C140.336 127.657 150.107 122.096 154.224 122.224C154.224 122.224 154.178 121.453 154.472 120.192C154.395 120.84 154.308 121.515 154.224 122.224C152.225 138.479 180.274 158.94 198.731 165.815C217.187 172.691 212.944 163.618 208.818 150.621C204.692 137.624 185.004 128.054 181.39 121.709C177.776 115.363 187.578 117.411 197.962 125.071C208.34 132.731 206.975 147.047 223.54 159.743C240.105 172.439 274.254 147.699 274.254 147.699C259.728 143.867 242.116 123.51 243.9 118.793C245.686 114.073 277.72 134.694 283.537 136.583C289.364 138.475 304.465 133.919 311.606 110.377Z" fill="url(#paint0_linear_17_949)"/>
<path d="M107.644 89.3083C107.644 80.3093 114.939 73.0141 123.938 73.0141H252.483C261.482 73.0141 268.777 80.3093 268.777 89.3083V189.338C268.777 198.337 261.482 205.632 252.483 205.632H123.938C114.939 205.632 107.644 198.337 107.644 189.338V89.3083Z" fill="#7688C9"/>
<path d="M126.428 89.7611C128.303 89.7611 129.822 88.2412 129.822 86.3664C129.822 84.4915 128.303 82.9716 126.428 82.9716C124.553 82.9716 123.033 84.4915 123.033 86.3664C123.033 88.2412 124.553 89.7611 126.428 89.7611Z" fill="white"/>
<path d="M138.196 89.7611C140.071 89.7611 141.591 88.2412 141.591 86.3664C141.591 84.4915 140.071 82.9716 138.196 82.9716C136.321 82.9716 134.801 84.4915 134.801 86.3664C134.801 88.2412 136.321 89.7611 138.196 89.7611Z" fill="white"/>
<path d="M149.964 89.7611C151.839 89.7611 153.359 88.2412 153.359 86.3664C153.359 84.4915 151.839 82.9716 149.964 82.9716C148.089 82.9716 146.569 84.4915 146.569 86.3664C146.569 88.2412 148.089 89.7611 149.964 89.7611Z" fill="white"/>
<path d="M229.399 163.086H126.654C124.654 163.086 123.033 164.707 123.033 166.707C123.033 168.707 124.654 170.328 126.654 170.328H229.399C231.399 170.328 233.02 168.707 233.02 166.707C233.02 164.707 231.399 163.086 229.399 163.086Z" fill="white"/>
<path d="M221.479 141.813H126.88C124.756 141.813 123.033 143.535 123.033 145.66V145.66C123.033 147.785 124.756 149.507 126.88 149.507H221.479C223.603 149.507 225.326 147.785 225.326 145.66V145.66C225.326 143.535 223.603 141.813 221.479 141.813Z" fill="white"/>
<path d="M234.378 120.087H126.654C124.654 120.087 123.033 121.708 123.033 123.708C123.033 125.707 124.654 127.328 126.654 127.328H234.378C236.378 127.328 237.999 125.707 237.999 123.708C237.999 121.708 236.378 120.087 234.378 120.087Z" fill="white"/>
<path d="M79.798 229.137C79.4413 228.17 85.6631 203.322 86.4943 202.485C87.3276 201.651 114.173 201.134 114.173 201.134C114.173 201.134 126.27 189.733 136.272 184.214C140.216 182.034 145.479 180.727 146.148 182.725C146.564 183.963 144.736 186.358 142.412 188.772C142.407 188.779 142.399 188.786 142.391 188.793C139.156 192.15 134.978 195.528 134.585 195.845C134.563 195.861 134.555 195.868 134.555 195.868C134.555 195.868 156.624 196.187 159.889 196.461C163.157 196.729 167.464 196.917 167.549 199.182C167.629 201.262 161.763 202.101 161.414 202.15C161.778 202.147 169.457 202.101 169.8 205.062C170.055 207.265 161.648 209.051 161.4 209.1C161.598 209.102 165.371 209.123 165.297 210.889C165.175 213.792 156.655 214.892 156.307 214.939C156.492 214.943 159.522 215.038 159.316 216.625C158.806 220.558 129.591 224.008 120.732 224.807C111.865 225.602 80.1576 230.105 79.798 229.137Z" fill="#F8AE9D"/>
<path d="M283.261 175.759H313.587V205.632H283.261V175.759Z" fill="url(#paint1_linear_17_949)"/>
<path d="M316.755 168.064H295.482C292.982 168.064 290.956 170.091 290.956 172.591V193.411C290.956 195.911 292.982 197.938 295.482 197.938H316.755C319.255 197.938 321.282 195.911 321.282 193.411V172.591C321.282 170.091 319.255 168.064 316.755 168.064Z" fill="#7688C9"/>
<path d="M313.374 86.3736L309.249 82.2487C307.481 80.4811 304.616 80.4811 302.848 82.2487L298.723 86.3736C296.956 88.1412 296.956 91.007 298.723 92.7746L302.848 96.8995C304.616 98.6671 307.481 98.6671 309.249 96.8995L313.374 92.7746C315.142 91.007 315.142 88.1412 313.374 86.3736Z" fill="#7688C9"/>
<path d="M286.656 100.171C288.531 100.171 290.051 101.691 290.051 103.566C290.051 105.441 288.531 106.961 286.656 106.961C284.781 106.961 283.261 105.441 283.261 103.566C283.261 101.691 284.781 100.171 286.656 100.171Z" fill="#E1E4E5"/>
<path d="M89.9426 183.713C89.9426 183.713 95.8736 156.221 87.7985 135.841C86.726 133.133 82.8351 133.292 81.9441 136.072C81.9294 136.118 81.9138 136.166 81.8995 136.214C80.4578 140.985 88.7336 166.03 89.9426 183.713ZM87.0107 191.837C87.0107 191.837 84.9103 154.219 66.9642 131.758C65.8705 130.388 63.8633 130.063 62.4528 131.112C61.5354 131.797 60.7814 133.097 60.7186 135.509C60.5539 141.944 79.4477 170.255 87.0107 191.837Z" fill="#7688C9"/>
<path d="M76.6393 123.708L70.9817 118.276L76.6393 112.845L82.2973 118.276L76.6393 123.708ZM289.824 159.012L284.166 153.355L289.824 147.697L295.482 153.355L289.824 159.012Z" stroke="#E1E4E5" stroke-width="5.313" stroke-linecap="round" stroke-linejoin="round"/>
<path d="M138.61 56.8741C136.726 59.6167 138.05 63.801 138.05 63.801C138.05 63.801 142.428 63.5366 144.311 60.7923C146.195 58.0502 144.872 53.8672 144.872 53.8672C144.872 53.8672 140.494 54.132 138.61 56.8741Z" fill="#E1E4E5"/>
<path d="M333.297 147.475C324.359 156.572 307.647 154.654 307.647 154.654C307.647 154.654 305.435 137.987 314.381 128.896C323.318 119.8 340.023 121.712 340.023 121.712C340.023 121.712 342.235 138.379 333.297 147.475Z" fill="url(#paint2_linear_17_949)"/>
<path d="M283.507 60.0674C280.797 62.8264 275.727 62.2445 275.727 62.2445C275.727 62.2445 275.057 57.1896 277.77 54.4319C280.481 51.6728 285.547 52.2531 285.547 52.2531C285.547 52.2531 286.218 57.3083 283.507 60.0674Z" fill="url(#paint3_linear_17_949)"/>
<path d="M97.4251 94.6041C101.403 101.631 99.5155 112.28 99.5155 112.28C99.5155 112.28 88.1318 109.148 84.1534 102.121C80.1754 95.0933 79.921 87.7167 83.5831 85.6393C87.2508 83.5601 93.4471 87.5767 97.4251 94.6041Z" fill="url(#paint4_linear_17_949)"/>
<path d="M301.647 118.276H301.538C300.895 127.383 294.124 127.523 294.124 127.523C294.124 127.523 301.591 127.669 301.591 138.192C301.591 127.669 309.058 127.523 309.058 127.523C309.058 127.523 302.289 127.383 301.647 118.276Z" fill="#E1E4E5"/>
</g>
<defs>
<linearGradient id="paint0_linear_17_949" x1="86.2585" y1="234.457" x2="398.289" y2="-72.9946" gradientUnits="userSpaceOnUse">
<stop stop-color="white"/>
<stop offset="1" stop-color="#EEEEEE"/>
</linearGradient>
<linearGradient id="paint1_linear_17_949" x1="299.071" y1="222.381" x2="298.163" y2="143.262" gradientUnits="userSpaceOnUse">
<stop stop-color="white"/>
<stop offset="1" stop-color="#EEEEEE"/>
</linearGradient>
<linearGradient id="paint2_linear_17_949" x1="297.638" y1="178.547" x2="362.252" y2="77.2599" gradientUnits="userSpaceOnUse">
<stop stop-color="white"/>
<stop offset="1" stop-color="#EEEEEE"/>
</linearGradient>
<linearGradient id="paint3_linear_17_949" x1="272.692" y1="69.4915" x2="292.29" y2="38.7703" gradientUnits="userSpaceOnUse">
<stop stop-color="white"/>
<stop offset="1" stop-color="#EEEEEE"/>
</linearGradient>
<linearGradient id="paint4_linear_17_949" x1="107.179" y1="94.042" x2="65.9473" y2="105.367" gradientUnits="userSpaceOnUse">
<stop stop-color="white"/>
<stop offset="1" stop-color="#EEEEEE"/>
</linearGradient>
<clipPath id="clip0_17_949">
<rect width="390" height="260" fill="white"/>
</clipPath>
</defs>
</svg>
