<svg width="390" height="260" viewBox="0 0 390 260" fill="none" xmlns="http://www.w3.org/2000/svg">
<path d="M299.89 151.267L299.497 153.413C296.138 171.514 283.745 186.024 266.941 190.634C264.779 191.231 262.572 191.654 260.341 191.898C244.228 193.693 227.052 186.205 216.318 172.693C210.004 164.747 205.487 154.645 196.984 149.557C185.909 142.928 172.528 147.262 160.996 151.703C149.453 156.153 136.061 160.445 125.007 153.763C118.088 149.589 113.624 141.77 111.286 133.761C105.068 112.569 112.232 89.1991 126.357 73.9028C140.483 58.6062 160.624 50.671 181.041 48.1325C209.632 44.5844 240.392 51.4466 264.03 70.3547C287.667 89.2632 302.962 120.908 299.89 151.267Z" fill="url(#paint0_linear_31_2205)"/>
<path fill-rule="evenodd" clip-rule="evenodd" d="M138.624 53.7528C129.186 53.7528 121.535 61.4038 121.535 70.8422V74.7309H274.778V70.8422C274.778 61.4038 267.127 53.7528 257.689 53.7528H138.624ZM274.778 96.7963H121.535V189.907C121.535 199.345 129.186 206.996 138.624 206.996H257.689C267.127 206.996 274.778 199.345 274.778 189.907V96.7963Z" fill="#7688C9"/>
<path d="M121.535 74.7309H115.127C115.127 78.27 117.996 81.1395 121.535 81.1395V74.7309ZM274.778 74.7309V81.1395C278.317 81.1395 281.187 78.27 281.187 74.7309H274.778ZM274.778 96.7963H281.187C281.187 93.2568 278.317 90.3877 274.778 90.3877V96.7963ZM121.535 96.7963V90.3877C117.996 90.3877 115.127 93.2568 115.127 96.7963H121.535ZM127.943 70.8422C127.943 64.9432 132.725 60.1614 138.624 60.1614V47.3443C125.647 47.3443 115.127 57.8647 115.127 70.8422H127.943ZM127.943 74.7309V70.8422H115.127V74.7309H127.943ZM121.535 81.1395H274.778V68.3224H121.535V81.1395ZM268.369 70.8422V74.7309H281.187V70.8422H268.369ZM257.689 60.1614C263.588 60.1614 268.369 64.9432 268.369 70.8422H281.187C281.187 57.8647 270.666 47.3443 257.689 47.3443V60.1614ZM138.624 60.1614H257.689V47.3443H138.624V60.1614ZM274.778 90.3877H121.535V103.205H274.778V90.3877ZM127.943 189.907V96.7963H115.127V189.907H127.943ZM138.624 200.587C132.725 200.587 127.943 195.805 127.943 189.907H115.127C115.127 202.884 125.647 213.404 138.624 213.404V200.587ZM257.689 200.587H138.624V213.404H257.689V200.587ZM268.369 189.907C268.369 195.805 263.588 200.587 257.689 200.587V213.404C270.666 213.404 281.187 202.884 281.187 189.907H268.369ZM268.369 96.7963V189.907H281.187V96.7963H268.369Z" fill="#7688C9"/>
<path d="M304.654 187.007L290.528 201.132C290.014 201.647 290.014 202.481 290.528 202.995C291.042 203.509 291.876 203.509 292.391 202.995L306.517 188.869C307.031 188.355 307.031 187.521 306.517 187.006C306.002 186.492 305.168 186.492 304.654 187.007Z" fill="#E1E4E5"/>
<path d="M303.272 197.12L299.198 201.194C298.684 201.708 298.684 202.542 299.198 203.057C299.712 203.571 300.546 203.571 301.061 203.057L305.135 198.983C305.649 198.468 305.649 197.634 305.135 197.12C304.62 196.606 303.786 196.606 303.272 197.12Z" fill="#E1E4E5"/>
<path d="M93.6752 64.128L102.878 54.9255C103.213 54.5904 103.213 54.0471 102.878 53.7121C102.543 53.377 101.999 53.377 101.664 53.7121L92.4618 62.9146C92.1267 63.2496 92.1267 63.7929 92.4618 64.128C92.7968 64.463 93.3401 64.463 93.6752 64.128Z" fill="#E1E4E5"/>
<path d="M94.5753 57.5393L97.2295 54.8852C97.5646 54.5501 97.5646 54.0068 97.2295 53.6718C96.8944 53.3367 96.3512 53.3367 96.0161 53.6718L93.3619 56.3259C93.0269 56.661 93.0269 57.2043 93.3619 57.5393C93.697 57.8744 94.2403 57.8744 94.5753 57.5393Z" fill="#E1E4E5"/>
<path d="M98.6686 158.119L86.181 170.607C85.7263 171.062 85.7263 171.799 86.181 172.253C86.6357 172.708 87.3729 172.708 87.8277 172.253L100.315 159.766C100.77 159.311 100.77 158.574 100.315 158.119C99.8605 157.665 99.1233 157.665 98.6686 158.119Z" fill="#E1E4E5"/>
<path d="M97.4464 167.06L93.8448 170.661C93.3901 171.116 93.3901 171.853 93.8448 172.308C94.2995 172.763 95.0368 172.763 95.4915 172.308L99.0931 168.706C99.5478 168.252 99.5478 167.515 99.0931 167.06C98.6384 166.605 97.9011 166.605 97.4464 167.06Z" fill="#E1E4E5"/>
<path d="M290.048 111.908L301.716 100.24C302.141 99.8153 302.141 99.1263 301.716 98.7014C301.292 98.2765 300.603 98.2765 300.178 98.7014L288.509 110.37C288.085 110.795 288.085 111.483 288.509 111.908C288.934 112.333 289.623 112.333 290.048 111.908Z" fill="#E1E4E5"/>
<path d="M291.19 103.554L294.555 100.189C294.98 99.7641 294.98 99.0752 294.555 98.6503C294.13 98.2253 293.441 98.2253 293.016 98.6503L289.651 102.015C289.226 102.44 289.226 103.129 289.651 103.554C290.076 103.979 290.765 103.979 291.19 103.554Z" fill="#E1E4E5"/>
<path d="M313.038 164.723L308.164 160.081L313.038 155.439L317.911 160.081L313.038 164.723Z" stroke="#E1E4E5" stroke-width="5.471" stroke-linecap="round" stroke-linejoin="round"/>
<path d="M92.4837 128.168C92.4837 130.733 90.4045 132.81 87.8366 132.81C85.2687 132.81 83.2 130.723 83.2 128.168C83.2 125.603 85.2787 123.526 87.847 123.526C90.4149 123.526 92.4837 125.603 92.4837 128.168Z" stroke="#E1E4E5" stroke-width="5.378" stroke-miterlimit="10"/>
<path d="M161.488 63.3698C160.858 65.7233 162.318 68.1595 164.75 68.8112C167.182 69.4629 169.665 68.0833 170.296 65.7298C170.927 63.3762 169.466 60.94 167.034 60.2883C164.602 59.6367 162.119 61.0163 161.488 63.3698Z" fill="white"/>
<path d="M303.126 133.011C302.462 135.491 299.913 136.962 297.434 136.298C294.954 135.634 293.483 133.085 294.147 130.605C294.812 128.126 297.36 126.654 299.84 127.319C302.319 127.983 303.791 130.532 303.126 133.011Z" fill="#7688C9"/>
<path d="M264.104 67.9386C263.696 69.4625 262.354 70.427 261.107 70.0929C259.86 69.7587 259.18 68.2526 259.589 66.7287C259.997 65.2048 261.339 64.2403 262.586 64.5745C263.833 64.9086 264.513 66.4148 264.104 67.9386Z" fill="white"/>
<path d="M97.8501 82.527H97.9445C98.5035 89.9557 104.397 90.0701 104.397 90.0701C104.397 90.0701 97.8982 90.1892 97.8982 98.7731C97.8982 90.1892 91.3999 90.0701 91.3999 90.0701C91.3999 90.0701 97.2906 89.9557 97.8501 82.527ZM293.295 64.8323H293.376C293.855 70.7755 298.906 70.8669 298.906 70.8669C298.906 70.8669 293.336 70.9622 293.336 77.8293C293.336 70.9622 287.766 70.8669 287.766 70.8669C287.766 70.8669 292.815 70.7755 293.295 64.8323Z" fill="#E1E4E5"/>
<path d="M141.292 193.77L130.187 204.875C129.783 205.279 129.783 205.934 130.187 206.339L130.187 206.339C130.591 206.743 131.247 206.743 131.651 206.339L142.756 195.234C143.16 194.83 143.16 194.175 142.756 193.77L142.756 193.77C142.351 193.366 141.696 193.366 141.292 193.77Z" fill="white"/>
<path d="M150.378 193.77L139.273 204.875C138.869 205.279 138.869 205.934 139.273 206.339L139.273 206.339C139.678 206.743 140.333 206.743 140.737 206.339L151.842 195.234C152.246 194.83 152.246 194.175 151.842 193.77L151.842 193.77C151.438 193.366 150.782 193.366 150.378 193.77Z" fill="white"/>
<path d="M160.032 193.77L148.927 204.875C148.523 205.279 148.523 205.934 148.927 206.339L148.927 206.339C149.331 206.743 149.987 206.743 150.391 206.339L161.496 195.234C161.9 194.83 161.9 194.175 161.496 193.77L161.496 193.77C161.091 193.366 160.436 193.366 160.032 193.77Z" fill="white"/>
<path d="M253.255 206.521C257.613 206.526 263.885 205.391 269.023 200.44C274.16 195.487 271.272 192.41 266.172 191.852C261.072 191.294 254.956 193.62 250.996 198.601C247.035 203.581 249.677 206.517 253.255 206.521Z" fill="url(#paint1_linear_31_2205)"/>
<path d="M204.762 118.779L190.57 169.86M172.614 161.345L155.587 144.318L172.614 127.291V161.345ZM223.696 127.291L240.723 144.318L223.696 161.345V127.291Z" stroke="white" stroke-width="5" stroke-linecap="round" stroke-linejoin="round"/>
<defs>
<linearGradient id="paint0_linear_31_2205" x1="200.579" y1="-34.0219" x2="203.965" y2="349.841" gradientUnits="userSpaceOnUse">
<stop stop-color="white"/>
<stop offset="1" stop-color="#EEEEEE"/>
</linearGradient>
<linearGradient id="paint1_linear_31_2205" x1="276.291" y1="208.15" x2="236.641" y2="185.764" gradientUnits="userSpaceOnUse">
<stop stop-color="white"/>
<stop offset="1" stop-color="#EEEEEE"/>
</linearGradient>
</defs>
</svg>
