<svg width="390" height="260" viewBox="0 0 390 260" fill="none" xmlns="http://www.w3.org/2000/svg">
<path d="M330.636 58.8194H225.16C219.883 58.8194 215.605 63.0969 215.605 68.3735V96.4228C215.605 101.699 219.883 105.977 225.16 105.977H330.636C335.913 105.977 340.19 101.699 340.19 96.4228V68.3735C340.19 63.0969 335.913 58.8194 330.636 58.8194Z" fill="white" stroke="#E1E4E5" stroke-width="2.321"/>
<path d="M324.947 73.1072H254.037C252.476 73.1072 251.21 74.3732 251.21 75.9347V75.9352C251.21 77.4968 252.476 78.7627 254.037 78.7627H324.947C326.509 78.7627 327.774 77.4968 327.774 75.9352V75.9347C327.774 74.3732 326.509 73.1072 324.947 73.1072Z" fill="url(#paint0_linear_17_661)"/>
<path d="M297.975 85.7229H254.037C252.476 85.7229 251.21 86.9888 251.21 88.5504V88.5508C251.21 90.1124 252.476 91.3783 254.037 91.3783H297.975C299.537 91.3783 300.803 90.1124 300.803 88.5508V88.5504C300.803 86.9888 299.537 85.7229 297.975 85.7229Z" fill="url(#paint1_linear_17_661)"/>
<path fill-rule="evenodd" clip-rule="evenodd" d="M235.007 94.5391C228.349 94.5391 222.952 89.0656 222.952 82.3147C222.952 75.5638 228.349 70.0904 235.007 70.0904C241.663 70.0904 247.061 75.5638 247.061 82.3147C247.061 89.0656 241.663 94.5391 235.007 94.5391Z" fill="#7688C9"/>
<path d="M239.251 80.2772L234.159 85.7103L231.101 82.4512" stroke="white" stroke-width="2.38" stroke-linecap="round" stroke-linejoin="round"/>
<path d="M199.109 140.592V197.484C199.109 201.64 195.74 205.002 191.584 205.002H57.427C53.2718 205.002 49.9026 201.64 49.9026 197.484V140.592C49.9026 136.435 53.2726 133.063 57.427 133.063H191.584C195.739 133.063 199.109 136.435 199.109 140.592Z" fill="white" stroke="#E1E4E5" stroke-width="2.321"/>
<path d="M101.423 199.685H61.9026C58.9104 199.685 56.4768 197.25 56.4768 194.256V154.712C56.4768 151.719 58.9104 149.283 61.9026 149.283H101.423C104.415 149.283 106.849 151.719 106.849 154.712V194.256C106.849 197.261 104.415 199.685 101.423 199.685Z" fill="#7688C9"/>
<path d="M199.109 140.592C199.109 141.093 198.91 141.573 198.556 141.927C198.202 142.281 197.721 142.48 197.221 142.48H51.7906C51.29 142.48 50.8098 142.281 50.4557 141.927C50.1017 141.573 49.9027 141.093 49.9026 140.592C49.9026 136.435 53.2726 133.063 57.427 133.063H191.584C195.739 133.063 199.109 136.435 199.109 140.592Z" fill="white" stroke="#E1E4E5" stroke-width="2.321"/>
<path d="M59.5958 137.956C59.595 138.36 59.4345 138.746 59.1494 139.032C58.8643 139.317 58.4778 139.478 58.0744 139.479C57.6711 139.478 57.2845 139.317 56.9994 139.032C56.7143 138.746 56.5538 138.36 56.553 137.956C56.5537 137.553 56.7139 137.167 56.9987 136.882C57.2834 136.596 57.6696 136.435 58.0727 136.434C58.9155 136.444 59.5958 137.122 59.5958 137.956ZM65.4753 137.956C65.4746 138.359 65.3141 138.746 65.029 139.032C64.7439 139.317 64.3573 139.478 63.9539 139.479C63.5505 139.478 63.1641 139.317 62.879 139.031C62.594 138.746 62.4336 138.359 62.4329 137.956C62.4336 137.553 62.5937 137.167 62.8784 136.881C63.1631 136.596 63.5491 136.435 63.9521 136.434C64.795 136.444 65.4753 137.122 65.4753 137.956ZM71.3548 137.956C71.3541 138.359 71.1936 138.746 70.9085 139.032C70.6233 139.317 70.2368 139.478 69.8333 139.479C69.4299 139.478 69.0433 139.317 68.7582 139.032C68.4731 138.746 68.3126 138.359 68.3119 137.956C68.3127 137.553 68.473 137.167 68.7577 136.881C69.0425 136.596 69.4286 136.435 69.8316 136.434C70.6844 136.444 71.3548 137.121 71.3548 137.956Z" fill="#E1E4E5" stroke="#E1E4E5" stroke-width="1.583"/>
<path d="M139.787 150.16H117.914C114.095 150.16 110.999 153.256 110.999 157.075C110.999 160.893 114.095 163.989 117.914 163.989H139.787C143.606 163.989 146.702 160.893 146.702 157.075C146.702 153.256 143.606 150.16 139.787 150.16Z" fill="url(#paint2_linear_17_661)"/>
<path d="M139.787 184.354H117.914C114.095 184.354 110.999 187.45 110.999 191.268C110.999 195.087 114.095 198.182 117.914 198.182H139.787C143.606 198.182 146.702 195.087 146.702 191.268C146.702 187.45 143.606 184.354 139.787 184.354Z" fill="url(#paint3_linear_17_661)"/>
<path d="M125.707 167.257H117.914C114.095 167.257 110.999 170.353 110.999 174.171C110.999 177.99 114.095 181.086 117.914 181.086H125.707C129.526 181.086 132.622 177.99 132.622 174.171C132.622 170.353 129.526 167.257 125.707 167.257Z" fill="url(#paint4_linear_17_661)"/>
<path d="M154.621 167.257H146.827C143.008 167.257 139.913 170.353 139.913 174.171C139.913 177.99 143.008 181.086 146.827 181.086H154.621C158.44 181.086 161.535 177.99 161.535 174.171C161.535 170.353 158.44 167.257 154.621 167.257Z" fill="url(#paint5_linear_17_661)"/>
<path d="M183.535 167.257H175.741C171.923 167.257 168.827 170.353 168.827 174.171C168.827 177.99 171.923 181.086 175.741 181.086H183.535C187.354 181.086 190.45 177.99 190.45 174.171C190.45 170.353 187.354 167.257 183.535 167.257Z" fill="url(#paint6_linear_17_661)"/>
<path d="M183.535 150.16H161.662C157.843 150.16 154.747 153.256 154.747 157.075C154.747 160.893 157.843 163.989 161.662 163.989H183.535C187.354 163.989 190.45 160.893 190.45 157.075C190.45 153.256 187.354 150.16 183.535 150.16Z" fill="url(#paint7_linear_17_661)"/>
<path d="M183.535 184.354H161.662C157.843 184.354 154.747 187.45 154.747 191.268C154.747 195.087 157.843 198.182 161.662 198.182H183.535C187.354 198.182 190.45 195.087 190.45 191.268C190.45 187.45 187.354 184.354 183.535 184.354Z" fill="url(#paint8_linear_17_661)"/>
<path d="M83.8757 165.796L79.1168 182.924M73.0956 180.069L67.3865 174.359L73.0956 168.65V180.069ZM90.224 168.65L95.9336 174.359L90.224 180.069V168.65Z" stroke="white" stroke-width="2" stroke-linecap="round" stroke-linejoin="round"/>
<path d="M339.98 120.059V176.95C339.98 181.107 336.611 184.468 332.456 184.468H198.298C194.143 184.468 190.774 181.107 190.774 176.95V120.059C190.774 115.901 194.144 112.529 198.298 112.529H332.456C336.61 112.529 339.98 115.901 339.98 120.059Z" fill="white" stroke="#E1E4E5" stroke-width="2.321"/>
<path d="M242.294 179.152H202.774C199.781 179.152 197.348 176.716 197.348 173.723V134.179C197.348 131.185 199.781 128.749 202.774 128.749H242.294C245.286 128.749 247.72 131.185 247.72 134.179V173.723C247.72 176.728 245.286 179.152 242.294 179.152Z" fill="url(#paint9_linear_17_661)"/>
<path d="M339.98 120.059C339.98 120.559 339.781 121.039 339.427 121.393C339.073 121.747 338.593 121.946 338.092 121.946H192.662C192.161 121.946 191.681 121.747 191.327 121.393C190.973 121.039 190.774 120.559 190.774 120.059C190.774 115.901 194.144 112.529 198.298 112.529H332.456C336.61 112.529 339.98 115.901 339.98 120.059Z" fill="white" stroke="#E1E4E5" stroke-width="2.321"/>
<path d="M200.467 117.423C200.466 117.826 200.306 118.212 200.02 118.498C199.735 118.783 199.349 118.944 198.946 118.945C198.542 118.944 198.156 118.783 197.871 118.498C197.585 118.212 197.425 117.826 197.424 117.423C197.425 117.019 197.585 116.633 197.87 116.348C198.154 116.062 198.54 115.901 198.943 115.9C199.787 115.91 200.467 116.588 200.467 117.423ZM206.346 117.422C206.346 117.826 206.185 118.212 205.9 118.498C205.615 118.783 205.228 118.944 204.825 118.945C204.422 118.944 204.035 118.783 203.75 118.498C203.465 118.212 203.304 117.826 203.304 117.422C203.304 117.019 203.465 116.633 203.749 116.347C204.034 116.062 204.42 115.901 204.823 115.9C205.666 115.91 206.346 116.588 206.346 117.422ZM212.226 117.422C212.225 117.826 212.065 118.212 211.78 118.498C211.494 118.783 211.108 118.944 210.704 118.945C210.301 118.944 209.915 118.783 209.63 118.497C209.345 118.212 209.184 117.825 209.183 117.422C209.184 117.019 209.344 116.633 209.629 116.348C209.914 116.062 210.3 115.901 210.703 115.9C211.556 115.91 212.226 116.587 212.226 117.422Z" fill="#E1E4E5" stroke="#E1E4E5" stroke-width="1.583"/>
<path d="M280.658 129.627H258.784C254.966 129.627 251.87 132.722 251.87 136.541C251.87 140.359 254.966 143.455 258.784 143.455H280.658C284.477 143.455 287.573 140.359 287.573 136.541C287.573 132.722 284.477 129.627 280.658 129.627Z" fill="url(#paint10_linear_17_661)"/>
<path d="M280.658 163.82H258.784C254.966 163.82 251.87 166.916 251.87 170.735C251.87 174.553 254.966 177.649 258.784 177.649H280.658C284.477 177.649 287.573 174.553 287.573 170.735C287.573 166.916 284.477 163.82 280.658 163.82Z" fill="url(#paint11_linear_17_661)"/>
<path d="M266.578 146.723H258.784C254.966 146.723 251.87 149.819 251.87 153.638C251.87 157.456 254.966 160.552 258.784 160.552H266.578C270.397 160.552 273.493 157.456 273.493 153.638C273.493 149.819 270.397 146.723 266.578 146.723Z" fill="url(#paint12_linear_17_661)"/>
<path d="M295.492 146.723H287.698C283.88 146.723 280.784 149.819 280.784 153.638C280.784 157.456 283.88 160.552 287.698 160.552H295.492C299.311 160.552 302.406 157.456 302.406 153.638C302.406 149.819 299.311 146.723 295.492 146.723Z" fill="url(#paint13_linear_17_661)"/>
<path d="M324.406 146.723H316.612C312.793 146.723 309.698 149.819 309.698 153.638C309.698 157.456 312.793 160.552 316.612 160.552H324.406C328.225 160.552 331.32 157.456 331.32 153.638C331.32 149.819 328.225 146.723 324.406 146.723Z" fill="url(#paint14_linear_17_661)"/>
<path d="M324.406 129.627H302.532C298.714 129.627 295.618 132.722 295.618 136.541C295.618 140.359 298.714 143.455 302.532 143.455H324.406C328.225 143.455 331.32 140.359 331.32 136.541C331.32 132.722 328.225 129.627 324.406 129.627Z" fill="url(#paint15_linear_17_661)"/>
<path d="M324.406 163.82H302.532C298.714 163.82 295.618 166.916 295.618 170.735C295.618 174.553 298.714 177.649 302.532 177.649H324.406C328.225 177.649 331.32 174.553 331.32 170.735C331.32 166.916 328.225 163.82 324.406 163.82Z" fill="url(#paint16_linear_17_661)"/>
<path d="M224.746 145.262L219.987 162.39M213.966 159.535L208.257 153.826L213.966 148.116V159.535ZM231.095 148.116L236.804 153.826L231.095 159.535V148.116Z" stroke="white" stroke-width="9.389" stroke-linecap="round" stroke-linejoin="round"/>
<path d="M209.137 57.5021V114.394C209.137 118.551 205.768 121.912 201.613 121.912H67.4549C63.3001 121.912 59.9309 118.551 59.9309 114.394V57.5021C59.9309 53.3447 63.3009 49.9729 67.4549 49.9729H201.613C205.767 49.9729 209.137 53.3447 209.137 57.5021Z" fill="white" stroke="#E1E4E5" stroke-width="2.321"/>
<path d="M111.451 116.595H71.9306C68.9385 116.595 66.5049 114.16 66.5049 111.166V71.6218C66.5049 68.6283 68.9385 66.193 71.9306 66.193H111.451C114.443 66.193 116.877 68.6283 116.877 71.6218V111.166C116.877 114.171 114.443 116.595 111.451 116.595Z" fill="#7688C9"/>
<path d="M209.137 57.5021C209.137 58.0027 208.938 58.4828 208.584 58.8368C208.23 59.1908 207.75 59.3897 207.249 59.3897H61.8185C61.3179 59.3896 60.8379 59.1907 60.4839 58.8367C60.1299 58.4827 59.931 58.0027 59.9309 57.5021C59.9309 53.3447 63.3009 49.9729 67.4549 49.9729H201.613C205.767 49.9729 209.137 53.3447 209.137 57.5021Z" fill="white" stroke="#E1E4E5" stroke-width="2.321"/>
<path d="M69.6242 54.8657C69.6235 55.2691 69.463 55.6558 69.1779 55.9412C68.8927 56.2266 68.5061 56.3874 68.1027 56.3884C67.6993 56.3874 67.3127 56.2266 67.0276 55.9412C66.7425 55.6558 66.582 55.2691 66.5813 54.8657C66.5821 54.4626 66.7424 54.0763 67.0271 53.7911C67.3119 53.5058 67.698 53.3449 68.101 53.3434C68.9438 53.3538 69.6242 54.0315 69.6242 54.8657ZM75.504 54.8661C75.5032 55.2695 75.3427 55.6561 75.0576 55.9414C74.7725 56.2266 74.386 56.3874 73.9826 56.3884C73.5793 56.3874 73.1928 56.2266 72.9076 55.9414C72.6225 55.6561 72.462 55.2695 72.4612 54.8661C72.4619 54.4631 72.622 54.0767 72.9067 53.7914C73.1914 53.506 73.5774 53.345 73.9804 53.3434C74.8237 53.3538 75.504 54.0315 75.504 54.8661ZM81.3831 54.8661C81.3823 55.2695 81.2217 55.6561 80.9366 55.9414C80.6515 56.2266 80.265 56.3874 79.8616 56.3884C79.4584 56.3873 79.072 56.2265 78.7869 55.9412C78.5019 55.6559 78.3414 55.2694 78.3406 54.8661C78.3413 54.4631 78.5015 54.0767 78.7862 53.7914C79.0708 53.506 79.4569 53.345 79.8599 53.3434C80.7127 53.3538 81.3831 54.0302 81.3831 54.8661Z" fill="#E1E4E5" stroke="#E1E4E5" stroke-width="1.583"/>
<path d="M149.815 67.0701H127.942C124.123 67.0701 121.027 70.1657 121.027 73.9843C121.027 77.803 124.123 80.8986 127.942 80.8986H149.815C153.634 80.8986 156.73 77.803 156.73 73.9843C156.73 70.1657 153.634 67.0701 149.815 67.0701Z" fill="url(#paint17_linear_17_661)"/>
<path d="M149.815 101.264H127.942C124.123 101.264 121.027 104.36 121.027 108.178C121.027 111.997 124.123 115.093 127.942 115.093H149.815C153.634 115.093 156.73 111.997 156.73 108.178C156.73 104.36 153.634 101.264 149.815 101.264Z" fill="url(#paint18_linear_17_661)"/>
<path d="M135.736 84.1668H127.942C124.123 84.1668 121.027 87.2624 121.027 91.0811C121.027 94.8997 124.123 97.9953 127.942 97.9953H135.736C139.554 97.9953 142.65 94.8997 142.65 91.0811C142.65 87.2624 139.554 84.1668 135.736 84.1668Z" fill="url(#paint19_linear_17_661)"/>
<path d="M164.65 84.1668H156.856C153.037 84.1668 149.942 87.2624 149.942 91.0811C149.942 94.8997 153.037 97.9953 156.856 97.9953H164.65C168.469 97.9953 171.564 94.8997 171.564 91.0811C171.564 87.2624 168.469 84.1668 164.65 84.1668Z" fill="url(#paint20_linear_17_661)"/>
<path d="M193.563 84.1668H185.769C181.951 84.1668 178.855 87.2624 178.855 91.0811C178.855 94.8997 181.951 97.9953 185.769 97.9953H193.563C197.382 97.9953 200.478 94.8997 200.478 91.0811C200.478 87.2624 197.382 84.1668 193.563 84.1668Z" fill="url(#paint21_linear_17_661)"/>
<path d="M193.563 67.0701H171.69C167.871 67.0701 164.775 70.1657 164.775 73.9843C164.775 77.803 167.871 80.8986 171.69 80.8986H193.563C197.382 80.8986 200.478 77.803 200.478 73.9843C200.478 70.1657 197.382 67.0701 193.563 67.0701Z" fill="url(#paint22_linear_17_661)"/>
<path d="M193.563 101.264H171.69C167.871 101.264 164.775 104.36 164.775 108.178C164.775 111.997 167.871 115.093 171.69 115.093H193.563C197.382 115.093 200.478 111.997 200.478 108.178C200.478 104.36 197.382 101.264 193.563 101.264Z" fill="url(#paint23_linear_17_661)"/>
<path d="M93.9038 82.7052L89.1449 99.8335M83.1237 96.9783L77.4146 91.2691L83.1237 85.5595V96.9783ZM100.252 85.5595L105.962 91.2691L100.252 96.9783V85.5595Z" stroke="white" stroke-width="2" stroke-linecap="round" stroke-linejoin="round"/>
<path d="M181.518 135.709L187.385 133.925L212.888 133.174L218.64 134.744L217.889 148.759L204.877 157.062L192.256 156.809L184.321 149.579L182.56 142.411L181.518 135.709Z" fill="#F8AE9D"/>
<path d="M255.149 158.248C253.303 154.442 251.534 151.386 249.956 148.974C246.859 144.22 242.121 140.772 236.646 139.286L215.845 133.649C215.845 133.649 214.765 154.434 200.458 154.434C186.152 154.434 183.364 134.943 183.364 134.943L159.293 144.547C158.466 144.869 152.883 146.799 146.388 160.73C140.2 173.995 137.496 180.788 137.496 180.788L162.295 187.949L163.842 210.251L163.314 222.987L238.583 222.818L238.162 208.259L238.476 185.934L239.418 187.458L264.469 177.41C264.469 177.41 261.245 170.793 255.149 158.248Z" fill="#7688C9"/>
<path d="M198.028 143.124C204.132 143.012 211.068 131.104 211.068 131.104L211.466 100.516C211.785 91.7068 206.304 84.2006 196.427 84.159L195.51 84.2006C186.316 84.6387 179.036 91.2977 178.79 99.5033C178.558 107.14 178.418 115.576 178.717 119.652C179.342 128.089 188.967 126.665 188.967 126.665C188.987 126.665 188.941 130.914 188.967 133.397C189.04 138.972 195.577 143.314 198.028 143.124Z" fill="#F8AE9D"/>
<path d="M208.416 102.194C208.584 102.115 215.159 99.9185 215.306 106.413C215.453 112.908 208.569 111.711 208.556 111.524C208.542 111.338 208.416 102.194 208.416 102.194ZM139.633 181.409L129.547 201.65C128.42 203.912 127.892 206.425 128.015 208.949C128.398 216.807 134.885 222.987 142.75 222.987L171.912 222.529L172.941 208.114L150.93 202.807L159.27 187.038L139.633 181.409ZM263.191 177.924C263.191 177.924 269.448 196.512 276.272 213.406C276.41 213.743 276.563 214.371 276.685 214.716C278.224 218.905 273.591 222.987 268.912 222.987L229.477 222.918V210.098L254.008 204.89L245.124 185.161L263.191 177.924Z" fill="#F8AE9D"/>
<path d="M184.153 209.508C184.16 209.554 185.056 209.271 186.55 209.179C188.035 209.079 190.142 209.248 192.24 210.144C194.339 211.04 195.924 212.441 196.874 213.582C197.839 214.724 198.252 215.573 198.291 215.543C198.306 215.535 198.214 215.321 198.007 214.953C197.711 214.436 197.376 213.941 197.004 213.475C196.069 212.288 194.476 210.833 192.332 209.921C190.188 209.01 188.035 208.857 186.534 209.01C185.94 209.062 185.351 209.162 184.773 209.309C184.367 209.408 184.145 209.492 184.153 209.508ZM185.5 206.406C185.516 206.467 186.427 206.016 187.997 205.97C189.56 205.901 191.758 206.376 193.81 207.616C195.863 208.865 197.402 210.442 198.49 211.576C199.01 212.127 199.439 212.587 199.776 212.939C200.083 213.261 200.251 213.437 200.267 213.421C200.282 213.414 200.128 213.215 199.845 212.878C199.446 212.397 199.038 211.925 198.62 211.461C197.555 210.297 196.023 208.681 193.933 207.409C191.842 206.146 189.583 205.687 187.99 205.801C187.193 205.847 186.557 205.993 186.136 206.138C185.922 206.2 185.769 206.276 185.662 206.322C185.554 206.368 185.5 206.398 185.5 206.406Z" fill="#EB996E"/>
<path d="M237.771 207.746H232.111C232.111 207.746 219.336 203.128 216.709 203.572C214.343 203.971 205.681 209.722 203.981 210.863C203.789 210.994 203.651 211.169 203.567 211.384C203.401 211.835 203.415 212.332 203.608 212.772C203.801 213.212 204.157 213.56 204.601 213.743L204.777 213.82L204.701 214.08C204.599 214.415 204.555 214.764 204.571 215.114C204.632 216.332 206.271 216.699 206.891 215.65L206.562 216.232C206.429 216.468 206.366 216.736 206.378 217.006L206.409 217.534C206.425 217.82 206.527 218.094 206.702 218.321C206.877 218.548 207.116 218.717 207.389 218.805C207.648 218.891 207.926 218.9 208.19 218.831C208.454 218.762 208.692 218.617 208.875 218.415C209.97 217.205 212.344 214.784 213.953 214.517C215.377 214.279 217.759 214.248 219.199 214.256C219.555 214.257 219.904 214.365 220.198 214.568C220.492 214.77 220.717 215.057 220.845 215.39C219.895 215.459 213.255 218.92 210.904 220.161C210.177 220.544 209.633 221.233 209.541 222.053C209.457 222.788 209.824 223.562 211.279 223.217C214.404 222.489 220.018 219.908 220.018 219.908C220.018 219.908 222.913 219.081 224.789 220.406C227.431 222.267 228.642 222.949 230.909 222.198C233.176 221.448 234.845 220.368 234.845 220.368L239.31 219.924C239.326 219.924 243.545 209.37 237.771 207.746Z" fill="#F8AE9D"/>
<path d="M220.899 209.906C220.891 209.952 219.995 209.669 218.501 209.577C217.016 209.477 214.91 209.646 212.811 210.542C210.713 211.438 209.127 212.839 208.178 213.981C207.213 215.121 206.799 215.972 206.761 215.941C206.746 215.934 206.837 215.719 207.044 215.351C207.34 214.833 207.675 214.339 208.047 213.873C208.982 212.686 210.575 211.231 212.719 210.32C214.864 209.408 217.016 209.255 218.517 209.408C219.268 209.477 219.873 209.599 220.278 209.707C220.684 209.814 220.906 209.891 220.899 209.906ZM219.551 206.804C219.535 206.866 218.624 206.414 217.054 206.368C215.492 206.299 213.294 206.774 211.241 208.014C209.189 209.263 207.649 210.841 206.562 211.974C206.041 212.525 205.612 212.985 205.275 213.337C204.968 213.659 204.8 213.835 204.785 213.82C204.77 213.812 204.923 213.613 205.206 213.276C205.489 212.931 205.903 212.449 206.431 211.859C207.496 210.695 209.028 209.079 211.118 207.808C213.209 206.544 215.469 206.084 217.062 206.199C217.858 206.245 218.494 206.391 218.915 206.536C219.129 206.597 219.283 206.674 219.39 206.72C219.497 206.766 219.551 206.797 219.551 206.804Z" fill="#EB996E"/>
<path d="M230.112 223.347H170.689C169.876 223.348 169.095 223.034 168.508 222.472C167.921 221.909 167.575 221.141 167.541 220.329L165.757 179.432C165.68 177.64 167.112 176.139 168.905 176.139H231.782C233.574 176.139 235.006 177.632 234.937 179.425L233.268 220.329C233.199 222.014 231.805 223.347 230.112 223.347Z" fill="#31446C"/>
<path d="M206.348 200.5C206.348 203.86 203.631 206.577 200.271 206.577C196.911 206.577 194.194 203.86 194.194 200.5C194.194 197.14 196.911 194.423 200.271 194.423C203.631 194.423 206.348 197.154 206.348 200.5Z" fill="white"/>
<path d="M206.118 114.028H211.479V137.004H206.118V114.028Z" fill="#F8AE9D"/>
<path d="M208.222 93.4978C207.256 94.7445 205.552 95.0192 204.149 95.2658C202.263 95.5969 201.329 96.2867 200.35 98.1388C199.73 99.3222 199.11 100.618 198 101.259C197.098 101.782 197.131 100.448 196.988 99.415C196.974 99.3234 196.956 99.2327 196.932 99.1433C196.714 98.3186 195.836 98.4595 195.578 99.2728C195.344 100.005 194.841 100.625 194.201 100.97C194.096 101.027 193.985 101.075 193.875 101.055C193.725 101.033 193.607 100.893 193.509 100.766C193.304 100.5 193.1 100.163 192.89 99.8063C192.198 98.6328 190.888 99.0523 190.114 100.174C189.632 100.871 189.057 101.59 188.267 101.752C188.013 101.808 187.693 101.766 187.576 101.519C187.425 101.217 187.66 100.914 187.621 100.604C187.589 100.315 187.464 100.188 187.327 99.9419C186.79 98.9855 185.558 98.9509 184.802 99.7452C184.275 100.298 183.726 100.829 183.156 101.336C182.915 101.547 182.562 101.759 182.321 101.547C182.19 101.435 182.158 101.245 182.131 101.062C181.994 100.167 181.864 99.2728 181.726 98.3784C181.648 97.8784 181.381 97.2236 180.923 97.3501C180.702 97.4138 180.571 97.6461 180.447 97.8571C180.297 98.1249 177.614 101.174 177.562 100.942C177.144 99.2096 176.289 97.6318 175.871 95.8993C173.169 84.7514 185.16 75.7861 194.318 75.7367C196.355 75.7229 198.216 75.7558 200.193 76.2277C202.302 76.7347 204.528 77.5398 206.44 78.6734C209.123 80.2581 211.153 83.1385 210.631 86.5753" fill="#31446C"/>
<path d="M203.406 89.7295C202.059 91.2089 201.702 93.2907 201.576 95.2571C201.391 98.2229 201.642 101.304 203.056 103.936C203.459 104.686 203.756 108.394 204.377 108.19C204.575 108.126 204.542 105.25 205.064 103.699C205.87 101.297 209.583 100.382 211.253 101.9C213.922 104.314 212.357 107.248 211.471 109.074C210.943 110.175 210.104 111.412 209.959 112.577C209.781 114.07 209.728 119.508 210.732 120.776C211.571 121.84 212.462 116.702 213.222 115.691C218.844 108.151 224.234 88.9543 214.636 84.7908C213.176 84.1564 208.671 83.8301 207.303 84.637" fill="#31446C"/>
<path fill-rule="evenodd" clip-rule="evenodd" d="M246.544 43.2827H245.02C244.652 43.2827 244.355 42.9828 244.355 42.6175V41.0943C244.355 40.726 244.655 40.4292 245.02 40.4292H246.544C246.72 40.4298 246.889 40.5002 247.013 40.6248C247.138 40.7494 247.208 40.9182 247.209 41.0943V42.6175C247.209 42.7049 247.192 42.7915 247.159 42.8723C247.125 42.9531 247.076 43.0265 247.015 43.0883C246.953 43.1501 246.879 43.1991 246.799 43.2325C246.718 43.2658 246.631 43.2829 246.544 43.2827ZM241.262 43.2827H239.738C239.562 43.282 239.393 43.2117 239.269 43.0871C239.144 42.9624 239.074 42.7937 239.074 42.6175V41.0943C239.074 40.726 239.373 40.4292 239.738 40.4292H241.262C241.438 40.4298 241.607 40.5002 241.731 40.6248C241.856 40.7494 241.926 40.9182 241.927 41.0943V42.6175C241.926 42.7937 241.856 42.9624 241.731 43.0871C241.607 43.2117 241.438 43.282 241.262 43.2827ZM235.977 43.2827H234.453C234.277 43.282 234.108 43.2117 233.983 43.0871C233.859 42.9624 233.789 42.7937 233.788 42.6175V41.0943C233.788 40.726 234.088 40.4292 234.453 40.4292H235.977C236.153 40.4298 236.321 40.5002 236.446 40.6248C236.57 40.7494 236.641 40.9182 236.641 41.0943V42.6175C236.642 42.7049 236.625 42.7915 236.591 42.8723C236.558 42.9531 236.509 43.0265 236.447 43.0883C236.385 43.1501 236.312 43.1991 236.231 43.2325C236.15 43.2658 236.064 43.2829 235.977 43.2827ZM230.694 43.2827H229.171C228.994 43.282 228.826 43.2117 228.701 43.0871C228.577 42.9624 228.506 42.7937 228.506 42.6175V41.0943C228.506 40.726 228.806 40.4292 229.171 40.4292H230.694C231.063 40.4292 231.362 40.729 231.362 41.0943V42.6175C231.36 42.7938 231.289 42.9624 231.164 43.0868C231.039 43.2112 230.871 43.2815 230.694 43.2827ZM225.412 43.2827H223.889C223.52 43.2827 223.221 42.9828 223.221 42.6175V41.0943C223.221 40.726 223.52 40.4292 223.889 40.4292H225.412C225.589 40.4297 225.757 40.5 225.882 40.6246C226.007 40.7492 226.077 40.9181 226.077 41.0943V42.6175C226.077 42.7937 226.007 42.9626 225.882 43.0872C225.757 43.2118 225.589 43.2821 225.412 43.2827ZM241.068 37.5232H239.545C239.369 37.5227 239.2 37.4524 239.075 37.3278C238.951 37.2031 238.88 37.0343 238.88 36.8581V35.3314C238.881 35.1553 238.951 34.9865 239.075 34.862C239.2 34.7375 239.369 34.6673 239.545 34.6667H241.068C241.437 34.6667 241.733 34.9666 241.733 35.3314V36.855C241.734 36.9427 241.717 37.0295 241.684 37.1106C241.651 37.1917 241.602 37.2655 241.54 37.3276C241.478 37.3897 241.405 37.439 241.324 37.4725C241.243 37.5061 241.156 37.5233 241.068 37.5232ZM235.786 37.5232H234.263C234.087 37.5225 233.918 37.4522 233.793 37.3276C233.669 37.203 233.599 37.0342 233.598 36.8581V35.3314C233.599 35.1553 233.669 34.9867 233.793 34.8621C233.918 34.7376 234.087 34.6674 234.263 34.6667H235.786C235.962 34.6674 236.131 34.7376 236.256 34.8621C236.38 34.9867 236.45 35.1553 236.451 35.3314V36.855C236.452 36.9426 236.435 37.0295 236.402 37.1106C236.369 37.1917 236.32 37.2654 236.258 37.3276C236.196 37.3897 236.123 37.4389 236.042 37.4725C235.961 37.5061 235.874 37.5233 235.786 37.5232ZM230.504 37.5232H228.981C228.612 37.5232 228.313 37.2234 228.313 36.8581V35.3314C228.313 34.9666 228.612 34.6667 228.981 34.6667H230.504C230.68 34.6674 230.849 34.7376 230.974 34.8621C231.098 34.9867 231.168 35.1553 231.169 35.3314V36.855C231.169 37.2234 230.87 37.5232 230.504 37.5232ZM235.977 49.4702H234.453C234.277 49.4696 234.108 49.3992 233.983 49.2746C233.859 49.15 233.789 48.9812 233.788 48.8051V47.2819C233.788 46.9136 234.088 46.6167 234.453 46.6167H235.977C236.153 46.6174 236.321 46.6877 236.446 46.8123C236.57 46.9369 236.641 47.1057 236.641 47.2819V48.8051C236.641 48.8924 236.624 48.979 236.591 49.0598C236.558 49.1406 236.509 49.214 236.447 49.2758C236.385 49.3376 236.312 49.3866 236.231 49.4199C236.15 49.4533 236.064 49.4704 235.977 49.4702ZM230.694 49.4702H229.171C228.994 49.4696 228.826 49.3992 228.701 49.2746C228.577 49.15 228.506 48.9812 228.506 48.8051V47.2819C228.506 46.9136 228.806 46.6167 229.171 46.6167H230.694C231.063 46.6167 231.362 46.9166 231.362 47.2819V48.8051C231.36 48.9814 231.289 49.1499 231.164 49.2743C231.039 49.3988 230.871 49.4691 230.694 49.4702Z" fill="#E1E4E5"/>
<path d="M312.433 221.433H88.4001C87.2034 221.433 86.2334 222.403 86.2334 223.6C86.2334 224.797 87.2034 225.767 88.4001 225.767H312.433C313.63 225.767 314.6 224.797 314.6 223.6C314.6 222.403 313.63 221.433 312.433 221.433Z" fill="#E1E4E5"/>
<path d="M301.232 201.821L289.793 213.259C289.377 213.676 289.377 214.351 289.793 214.768L289.794 214.768C290.21 215.184 290.885 215.184 291.302 214.768L302.74 203.329C303.157 202.913 303.157 202.238 302.74 201.821L302.74 201.821C302.324 201.404 301.648 201.404 301.232 201.821Z" fill="#E1E4E5"/>
<path d="M300.112 210.01L296.813 213.309C296.397 213.726 296.397 214.401 296.813 214.817L296.814 214.818C297.23 215.234 297.905 215.234 298.322 214.818L301.621 211.519C302.037 211.102 302.037 210.427 301.621 210.011L301.62 210.01C301.204 209.594 300.529 209.594 300.112 210.01Z" fill="#E1E4E5"/>
<defs>
<linearGradient id="paint0_linear_17_661" x1="291.125" y1="81.9334" x2="291.112" y2="66.953" gradientUnits="userSpaceOnUse">
<stop stop-color="white"/>
<stop offset="1" stop-color="#EEEEEE"/>
</linearGradient>
<linearGradient id="paint1_linear_17_661" x1="277.064" y1="94.549" x2="277.044" y2="79.5691" gradientUnits="userSpaceOnUse">
<stop stop-color="white"/>
<stop offset="1" stop-color="#EEEEEE"/>
</linearGradient>
<linearGradient id="paint2_linear_17_661" x1="129.612" y1="171.742" x2="129.447" y2="135.113" gradientUnits="userSpaceOnUse">
<stop stop-color="white"/>
<stop offset="1" stop-color="#EEEEEE"/>
</linearGradient>
<linearGradient id="paint3_linear_17_661" x1="129.612" y1="205.936" x2="129.447" y2="169.307" gradientUnits="userSpaceOnUse">
<stop stop-color="white"/>
<stop offset="1" stop-color="#EEEEEE"/>
</linearGradient>
<linearGradient id="paint4_linear_17_661" x1="122.272" y1="188.839" x2="121.999" y2="152.211" gradientUnits="userSpaceOnUse">
<stop stop-color="white"/>
<stop offset="1" stop-color="#EEEEEE"/>
</linearGradient>
<linearGradient id="paint5_linear_17_661" x1="151.185" y1="188.839" x2="150.913" y2="152.211" gradientUnits="userSpaceOnUse">
<stop stop-color="white"/>
<stop offset="1" stop-color="#EEEEEE"/>
</linearGradient>
<linearGradient id="paint6_linear_17_661" x1="180.099" y1="188.839" x2="179.827" y2="152.211" gradientUnits="userSpaceOnUse">
<stop stop-color="white"/>
<stop offset="1" stop-color="#EEEEEE"/>
</linearGradient>
<linearGradient id="paint7_linear_17_661" x1="173.36" y1="171.742" x2="173.195" y2="135.113" gradientUnits="userSpaceOnUse">
<stop stop-color="white"/>
<stop offset="1" stop-color="#EEEEEE"/>
</linearGradient>
<linearGradient id="paint8_linear_17_661" x1="173.36" y1="205.936" x2="173.195" y2="169.307" gradientUnits="userSpaceOnUse">
<stop stop-color="white"/>
<stop offset="1" stop-color="#EEEEEE"/>
</linearGradient>
<linearGradient id="paint9_linear_17_661" x1="223.608" y1="207.41" x2="222.053" y2="73.9206" gradientUnits="userSpaceOnUse">
<stop stop-color="white"/>
<stop offset="1" stop-color="#EEEEEE"/>
</linearGradient>
<linearGradient id="paint10_linear_17_661" x1="270.482" y1="151.208" x2="270.317" y2="114.579" gradientUnits="userSpaceOnUse">
<stop stop-color="white"/>
<stop offset="1" stop-color="#EEEEEE"/>
</linearGradient>
<linearGradient id="paint11_linear_17_661" x1="270.482" y1="185.402" x2="270.317" y2="148.773" gradientUnits="userSpaceOnUse">
<stop stop-color="white"/>
<stop offset="1" stop-color="#EEEEEE"/>
</linearGradient>
<linearGradient id="paint12_linear_17_661" x1="263.142" y1="168.305" x2="262.869" y2="131.678" gradientUnits="userSpaceOnUse">
<stop stop-color="white"/>
<stop offset="1" stop-color="#EEEEEE"/>
</linearGradient>
<linearGradient id="paint13_linear_17_661" x1="292.056" y1="168.305" x2="291.784" y2="131.678" gradientUnits="userSpaceOnUse">
<stop stop-color="white"/>
<stop offset="1" stop-color="#EEEEEE"/>
</linearGradient>
<linearGradient id="paint14_linear_17_661" x1="320.97" y1="168.305" x2="320.698" y2="131.678" gradientUnits="userSpaceOnUse">
<stop stop-color="white"/>
<stop offset="1" stop-color="#EEEEEE"/>
</linearGradient>
<linearGradient id="paint15_linear_17_661" x1="314.231" y1="151.208" x2="314.065" y2="114.579" gradientUnits="userSpaceOnUse">
<stop stop-color="white"/>
<stop offset="1" stop-color="#EEEEEE"/>
</linearGradient>
<linearGradient id="paint16_linear_17_661" x1="314.231" y1="185.402" x2="314.065" y2="148.773" gradientUnits="userSpaceOnUse">
<stop stop-color="white"/>
<stop offset="1" stop-color="#EEEEEE"/>
</linearGradient>
<linearGradient id="paint17_linear_17_661" x1="139.64" y1="88.6514" x2="139.475" y2="52.023" gradientUnits="userSpaceOnUse">
<stop stop-color="white"/>
<stop offset="1" stop-color="#EEEEEE"/>
</linearGradient>
<linearGradient id="paint18_linear_17_661" x1="139.64" y1="122.845" x2="139.475" y2="86.2165" gradientUnits="userSpaceOnUse">
<stop stop-color="white"/>
<stop offset="1" stop-color="#EEEEEE"/>
</linearGradient>
<linearGradient id="paint19_linear_17_661" x1="132.3" y1="105.748" x2="132.027" y2="69.121" gradientUnits="userSpaceOnUse">
<stop stop-color="white"/>
<stop offset="1" stop-color="#EEEEEE"/>
</linearGradient>
<linearGradient id="paint20_linear_17_661" x1="161.214" y1="105.748" x2="160.941" y2="69.121" gradientUnits="userSpaceOnUse">
<stop stop-color="white"/>
<stop offset="1" stop-color="#EEEEEE"/>
</linearGradient>
<linearGradient id="paint21_linear_17_661" x1="190.128" y1="105.748" x2="189.855" y2="69.121" gradientUnits="userSpaceOnUse">
<stop stop-color="white"/>
<stop offset="1" stop-color="#EEEEEE"/>
</linearGradient>
<linearGradient id="paint22_linear_17_661" x1="183.388" y1="88.6514" x2="183.223" y2="52.023" gradientUnits="userSpaceOnUse">
<stop stop-color="white"/>
<stop offset="1" stop-color="#EEEEEE"/>
</linearGradient>
<linearGradient id="paint23_linear_17_661" x1="183.388" y1="122.845" x2="183.223" y2="86.2165" gradientUnits="userSpaceOnUse">
<stop stop-color="white"/>
<stop offset="1" stop-color="#EEEEEE"/>
</linearGradient>
</defs>
</svg>
